<svg width="28" height="29" viewBox="0 0 28 29" fill="none" xmlns="http://www.w3.org/2000/svg">
<path d="M5.75385 0.000366211H10.8438V22.8767H5.75385V0.000366211Z" fill="#64B9F7"/>
<path d="M5.75385 0.000366211H27.8841V4.53247H5.75385V0.000366211Z" fill="#64B9F7"/>
<path d="M5.75385 18.5604H27.8841V23.0925H5.75385V18.5604Z" fill="#64B9F7"/>
<path d="M3.31952 24.3874H27.884V28.9195H3.31952V24.3874Z" fill="#64B9F7"/>
<path d="M23.2487 22.9429L23.283 12.3018L27.9303 12.316L27.896 22.9572L23.2487 22.9429Z" fill="#64B9F7"/>
<path d="M0 28.9858L0.0935387 0L4.74086 0.0142626L4.64733 29L0 28.9858Z" fill="#64B9F7"/>
<path d="M13.2927 7.12219L28 7.16732L27.9854 11.6994L13.2781 11.6543L13.2927 7.12219Z" fill="#64B9F7"/>
<path d="M23.2367 22.6609H27.884V25.8981H23.2367V22.6609Z" fill="#64B9F7"/>
</svg>
